<?xml version="1.0" encoding="us-ascii" standalone="no"?><svg xmlns="http://www.w3.org/2000/svg" xmlns:xlink="http://www.w3.org/1999/xlink" contentStyleType="text/css" height="636px" preserveAspectRatio="none" style="width:961px;height:636px;background:#FFFFFF;" version="1.1" viewBox="0 0 961 636" width="961px" zoomAndPan="magnify"><defs/><g><!--class Camera--><g id="elem_Camera"><rect codeLine="1" fill="#F1F1F1" height="96.8906" id="Camera" rx="2.5" ry="2.5" style="stroke:#181818;stroke-width:0.5;" width="303" x="7" y="475.6"/><ellipse cx="127.75" cy="491.6" fill="#ADD1B2" rx="11" ry="11" style="stroke:#181818;stroke-width:1.0;"/><path d="M130.7188,497.2406 Q130.1406,497.5375 129.5,497.6781 Q128.8594,497.8344 128.1563,497.8344 Q125.6563,497.8344 124.3281,496.1937 Q123.0156,494.5375 123.0156,491.4125 Q123.0156,488.2875 124.3281,486.6312 Q125.6563,484.975 128.1563,484.975 Q128.8594,484.975 129.5,485.1312 Q130.1563,485.2875 130.7188,485.5844 L130.7188,488.3031 Q130.0938,487.725 129.5,487.4594 Q128.9063,487.1781 128.2813,487.1781 Q126.9375,487.1781 126.25,488.2562 Q125.5625,489.3187 125.5625,491.4125 Q125.5625,493.5062 126.25,494.5844 Q126.9375,495.6469 128.2813,495.6469 Q128.9063,495.6469 129.5,495.3812 Q130.0938,495.1 130.7188,494.5219 L130.7188,497.2406 Z " fill="#000000"/><text fill="#000000" font-family="sans-serif" font-size="14" lengthAdjust="spacing" textLength="53" x="148.25" y="496.4467">Camera</text><line style="stroke:#181818;stroke-width:0.5;" x1="8" x2="309" y1="507.6" y2="507.6"/><rect fill="none" height="6" style="stroke:#C82930;stroke-width:1.0;" width="6" x="15" y="518.2484"/><text fill="#000000" font-family="sans-serif" font-size="14" lengthAdjust="spacing" textLength="277" x="27" y="524.5951">CAMERA_MODEL_XIAO_ESP32S3: define</text><line style="stroke:#181818;stroke-width:0.5;" x1="8" x2="309" y1="531.8969" y2="531.8969"/><ellipse cx="18" cy="545.5453" fill="#84BE84" rx="3" ry="3" style="stroke:#038048;stroke-width:1.0;"/><text fill="#000000" font-family="sans-serif" font-size="14" lengthAdjust="spacing" textLength="140" x="27" y="548.892">setupCamera(): void</text><ellipse cx="18" cy="561.8422" fill="#84BE84" rx="3" ry="3" style="stroke:#038048;stroke-width:1.0;"/><text fill="#000000" font-family="sans-serif" font-size="14" lengthAdjust="spacing" textLength="130" x="27" y="565.1889">takePhoto(): String</text></g><!--class Esp32Robot--><g id="elem_Esp32Robot"><rect codeLine="7" fill="#F1F1F1" height="210.9688" id="Esp32Robot" rx="2.5" ry="2.5" style="stroke:#181818;stroke-width:0.5;" width="312" x="380.5" y="7"/><ellipse cx="489.25" cy="23" fill="#ADD1B2" rx="11" ry="11" style="stroke:#181818;stroke-width:1.0;"/><path d="M492.2188,28.6406 Q491.6406,28.9375 491,29.0781 Q490.3594,29.2344 489.6563,29.2344 Q487.1563,29.2344 485.8281,27.5938 Q484.5156,25.9375 484.5156,22.8125 Q484.5156,19.6875 485.8281,18.0313 Q487.1563,16.375 489.6563,16.375 Q490.3594,16.375 491,16.5313 Q491.6563,16.6875 492.2188,16.9844 L492.2188,19.7031 Q491.5938,19.125 491,18.8594 Q490.4063,18.5781 489.7813,18.5781 Q488.4375,18.5781 487.75,19.6563 Q487.0625,20.7188 487.0625,22.8125 Q487.0625,24.9063 487.75,25.9844 Q488.4375,27.0469 489.7813,27.0469 Q490.4063,27.0469 491,26.7813 Q491.5938,26.5 492.2188,25.9219 L492.2188,28.6406 Z " fill="#000000"/><text fill="#000000" font-family="sans-serif" font-size="14" lengthAdjust="spacing" textLength="86" x="509.75" y="27.8467">Esp32Robot</text><line style="stroke:#181818;stroke-width:0.5;" x1="381.5" x2="691.5" y1="39" y2="39"/><rect fill="none" height="6" style="stroke:#C82930;stroke-width:1.0;" width="6" x="388.5" y="49.6484"/><text fill="#000000" font-family="sans-serif" font-size="14" lengthAdjust="spacing" textLength="155" x="400.5" y="55.9951">robotSpeed: int = 255</text><rect fill="none" height="6" style="stroke:#C82930;stroke-width:1.0;" width="6" x="388.5" y="65.9453"/><text fill="#000000" font-family="sans-serif" font-size="14" lengthAdjust="spacing" textLength="176" x="400.5" y="72.292">robot_type: String = "DIY"</text><rect fill="none" height="6" style="stroke:#C82930;stroke-width:1.0;" width="6" x="388.5" y="82.2422"/><text fill="#000000" font-family="sans-serif" font-size="14" lengthAdjust="spacing" textLength="104" x="400.5" y="88.5889">ctrl_left: int = 0</text><rect fill="none" height="6" style="stroke:#C82930;stroke-width:1.0;" width="6" x="388.5" y="98.5391"/><text fill="#000000" font-family="sans-serif" font-size="14" lengthAdjust="spacing" textLength="114" x="400.5" y="104.8857">ctrl_right: int = 0</text><line style="stroke:#181818;stroke-width:0.5;" x1="381.5" x2="691.5" y1="112.1875" y2="112.1875"/><ellipse cx="391.5" cy="125.8359" fill="#84BE84" rx="3" ry="3" style="stroke:#038048;stroke-width:1.0;"/><text fill="#000000" font-family="sans-serif" font-size="14" lengthAdjust="spacing" textLength="167" x="400.5" y="129.1826">printSensorsData(): void</text><ellipse cx="391.5" cy="142.1328" fill="#84BE84" rx="3" ry="3" style="stroke:#038048;stroke-width:1.0;"/><text fill="#000000" font-family="sans-serif" font-size="14" lengthAdjust="spacing" textLength="196" x="400.5" y="145.4795">process_feature_msg(): void</text><ellipse cx="391.5" cy="158.4297" fill="#84BE84" rx="3" ry="3" style="stroke:#038048;stroke-width:1.0;"/><text fill="#000000" font-family="sans-serif" font-size="14" lengthAdjust="spacing" textLength="193" x="400.5" y="161.7764">sendData(data: String): void</text><ellipse cx="391.5" cy="174.7266" fill="#84BE84" rx="3" ry="3" style="stroke:#038048;stroke-width:1.0;"/><text fill="#000000" font-family="sans-serif" font-size="14" lengthAdjust="spacing" textLength="286" x="400.5" y="178.0732">process_ctrl_msg(command: String): void</text><ellipse cx="391.5" cy="191.0234" fill="#84BE84" rx="3" ry="3" style="stroke:#038048;stroke-width:1.0;"/><text fill="#000000" font-family="sans-serif" font-size="14" lengthAdjust="spacing" textLength="87" x="400.5" y="194.3701">setup(): void</text><ellipse cx="391.5" cy="207.3203" fill="#84BE84" rx="3" ry="3" style="stroke:#038048;stroke-width:1.0;"/><text fill="#000000" font-family="sans-serif" font-size="14" lengthAdjust="spacing" textLength="77" x="400.5" y="210.667">loop(): void</text></g><!--class MotorDriver--><g id="elem_MotorDriver"><rect codeLine="20" fill="#F1F1F1" height="210.9688" id="MotorDriver" rx="2.5" ry="2.5" style="stroke:#181818;stroke-width:0.5;" width="233" x="347" y="418.56"/><ellipse cx="419.25" cy="434.56" fill="#ADD1B2" rx="11" ry="11" style="stroke:#181818;stroke-width:1.0;"/><path d="M422.2188,440.2006 Q421.6406,440.4975 421,440.6381 Q420.3594,440.7944 419.6563,440.7944 Q417.1563,440.7944 415.8281,439.1537 Q414.5156,437.4975 414.5156,434.3725 Q414.5156,431.2475 415.8281,429.5912 Q417.1563,427.935 419.6563,427.935 Q420.3594,427.935 421,428.0912 Q421.6563,428.2475 422.2188,428.5444 L422.2188,431.2631 Q421.5938,430.685 421,430.4194 Q420.4063,430.1381 419.7813,430.1381 Q418.4375,430.1381 417.75,431.2162 Q417.0625,432.2787 417.0625,434.3725 Q417.0625,436.4662 417.75,437.5444 Q418.4375,438.6069 419.7813,438.6069 Q420.4063,438.6069 421,438.3412 Q421.5938,438.06 422.2188,437.4819 L422.2188,440.2006 Z " fill="#000000"/><text fill="#000000" font-family="sans-serif" font-size="14" lengthAdjust="spacing" textLength="80" x="439.75" y="439.4067">MotorDriver</text><line style="stroke:#181818;stroke-width:0.5;" x1="348" x2="579" y1="450.56" y2="450.56"/><rect fill="none" height="6" style="stroke:#C82930;stroke-width:1.0;" width="6" x="355" y="461.2084"/><text fill="#000000" font-family="sans-serif" font-size="14" lengthAdjust="spacing" textLength="169" x="367" y="467.5551">motorAInput1: int = D10</text><rect fill="none" height="6" style="stroke:#C82930;stroke-width:1.0;" width="6" x="355" y="477.5053"/><text fill="#000000" font-family="sans-serif" font-size="14" lengthAdjust="spacing" textLength="160" x="367" y="483.852">motorAInput2: int = D9</text><rect fill="none" height="6" style="stroke:#C82930;stroke-width:1.0;" width="6" x="355" y="493.8022"/><text fill="#000000" font-family="sans-serif" font-size="14" lengthAdjust="spacing" textLength="150" x="367" y="500.1489">motorAPWM: int = D8</text><rect fill="none" height="6" style="stroke:#C82930;stroke-width:1.0;" width="6" x="355" y="510.0991"/><text fill="#000000" font-family="sans-serif" font-size="14" lengthAdjust="spacing" textLength="161" x="367" y="516.4457">motorBInput1: int = D5</text><rect fill="none" height="6" style="stroke:#C82930;stroke-width:1.0;" width="6" x="355" y="526.3959"/><text fill="#000000" font-family="sans-serif" font-size="14" lengthAdjust="spacing" textLength="161" x="367" y="532.7426">motorBInput2: int = D6</text><rect fill="none" height="6" style="stroke:#C82930;stroke-width:1.0;" width="6" x="355" y="542.6928"/><text fill="#000000" font-family="sans-serif" font-size="14" lengthAdjust="spacing" textLength="151" x="367" y="549.0395">motorBPWM: int = D7</text><rect fill="none" height="6" style="stroke:#C82930;stroke-width:1.0;" width="6" x="355" y="558.9897"/><text fill="#000000" font-family="sans-serif" font-size="14" lengthAdjust="spacing" textLength="116" x="367" y="565.3364">stbyPin: int = D4</text><line style="stroke:#181818;stroke-width:0.5;" x1="348" x2="579" y1="572.6381" y2="572.6381"/><ellipse cx="358" cy="586.2866" fill="#84BE84" rx="3" ry="3" style="stroke:#038048;stroke-width:1.0;"/><text fill="#000000" font-family="sans-serif" font-size="14" lengthAdjust="spacing" textLength="168" x="367" y="589.6332">SetupMotorDriver(): void</text><ellipse cx="358" cy="602.5834" fill="#84BE84" rx="3" ry="3" style="stroke:#038048;stroke-width:1.0;"/><text fill="#000000" font-family="sans-serif" font-size="14" lengthAdjust="spacing" textLength="206" x="367" y="605.9301">controlMotorA(value: int): void</text><ellipse cx="358" cy="618.8803" fill="#84BE84" rx="3" ry="3" style="stroke:#038048;stroke-width:1.0;"/><text fill="#000000" font-family="sans-serif" font-size="14" lengthAdjust="spacing" textLength="207" x="367" y="622.227">controlMotorB(value: int): void</text></g><!--class Sensors--><g id="elem_Sensors"><rect codeLine="33" fill="#F1F1F1" height="178.375" id="Sensors" rx="2.5" ry="2.5" style="stroke:#181818;stroke-width:0.5;" width="202" x="635.5" y="434.86"/><ellipse cx="703.75" cy="450.86" fill="#ADD1B2" rx="11" ry="11" style="stroke:#181818;stroke-width:1.0;"/><path d="M706.7188,456.5006 Q706.1406,456.7975 705.5,456.9381 Q704.8594,457.0944 704.1563,457.0944 Q701.6563,457.0944 700.3281,455.4538 Q699.0156,453.7975 699.0156,450.6725 Q699.0156,447.5475 700.3281,445.8913 Q701.6563,444.235 704.1563,444.235 Q704.8594,444.235 705.5,444.3913 Q706.1563,444.5475 706.7188,444.8444 L706.7188,447.5631 Q706.0938,446.985 705.5,446.7194 Q704.9063,446.4381 704.2813,446.4381 Q702.9375,446.4381 702.25,447.5163 Q701.5625,448.5788 701.5625,450.6725 Q701.5625,452.7663 702.25,453.8444 Q702.9375,454.9069 704.2813,454.9069 Q704.9063,454.9069 705.5,454.6413 Q706.0938,454.36 706.7188,453.7819 L706.7188,456.5006 Z " fill="#000000"/><text fill="#000000" font-family="sans-serif" font-size="14" lengthAdjust="spacing" textLength="57" x="724.25" y="455.7067">Sensors</text><line style="stroke:#181818;stroke-width:0.5;" x1="636.5" x2="836.5" y1="466.86" y2="466.86"/><rect fill="none" height="6" style="stroke:#C82930;stroke-width:1.0;" width="6" x="643.5" y="477.5084"/><text fill="#000000" font-family="sans-serif" font-size="14" lengthAdjust="spacing" textLength="128" x="655.5" y="483.8551">TRIG_PIN: int = D2</text><rect fill="none" height="6" style="stroke:#C82930;stroke-width:1.0;" width="6" x="643.5" y="493.8053"/><text fill="#000000" font-family="sans-serif" font-size="14" lengthAdjust="spacing" textLength="135" x="655.5" y="500.152">ECHO_PIN: int = D3</text><rect fill="none" height="6" style="stroke:#C82930;stroke-width:1.0;" width="6" x="643.5" y="510.1022"/><text fill="#000000" font-family="sans-serif" font-size="14" lengthAdjust="spacing" textLength="174" x="655.5" y="516.4489">RIGHT_SENSOR: int = D0</text><rect fill="none" height="6" style="stroke:#C82930;stroke-width:1.0;" width="6" x="643.5" y="526.3991"/><text fill="#000000" font-family="sans-serif" font-size="14" lengthAdjust="spacing" textLength="164" x="655.5" y="532.7457">LEFT_SENSOR: int = D1</text><line style="stroke:#181818;stroke-width:0.5;" x1="636.5" x2="836.5" y1="540.0475" y2="540.0475"/><ellipse cx="646.5" cy="553.6959" fill="#84BE84" rx="3" ry="3" style="stroke:#038048;stroke-width:1.0;"/><text fill="#000000" font-family="sans-serif" font-size="14" lengthAdjust="spacing" textLength="145" x="655.5" y="557.0426">SetupSensors(): void</text><ellipse cx="646.5" cy="569.9928" fill="#84BE84" rx="3" ry="3" style="stroke:#038048;stroke-width:1.0;"/><text fill="#000000" font-family="sans-serif" font-size="14" lengthAdjust="spacing" textLength="120" x="655.5" y="573.3395">getDistance(): int</text><ellipse cx="646.5" cy="586.2897" fill="#84BE84" rx="3" ry="3" style="stroke:#038048;stroke-width:1.0;"/><text fill="#000000" font-family="sans-serif" font-size="14" lengthAdjust="spacing" textLength="176" x="655.5" y="589.6364">isRightLineDetected(): int</text><ellipse cx="646.5" cy="602.5866" fill="#84BE84" rx="3" ry="3" style="stroke:#038048;stroke-width:1.0;"/><text fill="#000000" font-family="sans-serif" font-size="14" lengthAdjust="spacing" textLength="165" x="655.5" y="605.9332">isLeftLineDetected(): int</text></g><!--class Strategy--><g id="elem_Strategy"><rect codeLine="44" fill="#F1F1F1" height="80.5938" id="Strategy" rx="2.5" ry="2.5" style="stroke:#181818;stroke-width:0.5;" width="188" x="516.5" y="277.97"/><ellipse cx="577.75" cy="293.97" fill="#ADD1B2" rx="11" ry="11" style="stroke:#181818;stroke-width:1.0;"/><path d="M580.7188,299.6106 Q580.1406,299.9075 579.5,300.0481 Q578.8594,300.2044 578.1563,300.2044 Q575.6563,300.2044 574.3281,298.5637 Q573.0156,296.9075 573.0156,293.7825 Q573.0156,290.6575 574.3281,289.0012 Q575.6563,287.345 578.1563,287.345 Q578.8594,287.345 579.5,287.5012 Q580.1563,287.6575 580.7188,287.9544 L580.7188,290.6731 Q580.0938,290.095 579.5,289.8294 Q578.9063,289.5481 578.2813,289.5481 Q576.9375,289.5481 576.25,290.6262 Q575.5625,291.6887 575.5625,293.7825 Q575.5625,295.8762 576.25,296.9544 Q576.9375,298.0169 578.2813,298.0169 Q578.9063,298.0169 579.5,297.7512 Q580.0938,297.47 580.7188,296.8919 L580.7188,299.6106 Z " fill="#000000"/><text fill="#000000" font-family="sans-serif" font-size="14" lengthAdjust="spacing" textLength="57" x="598.25" y="298.8167">Strategy</text><line style="stroke:#181818;stroke-width:0.5;" x1="517.5" x2="703.5" y1="309.97" y2="309.97"/><line style="stroke:#181818;stroke-width:0.5;" x1="517.5" x2="703.5" y1="317.97" y2="317.97"/><ellipse cx="527.5" cy="331.6184" fill="#84BE84" rx="3" ry="3" style="stroke:#038048;stroke-width:1.0;"/><text fill="#000000" font-family="sans-serif" font-size="14" lengthAdjust="spacing" textLength="160" x="536.5" y="334.9651">executeStrategy(): void</text><ellipse cx="527.5" cy="347.9153" fill="#84BE84" rx="3" ry="3" style="stroke:#038048;stroke-width:1.0;"/><text fill="#000000" font-family="sans-serif" font-size="14" lengthAdjust="spacing" textLength="162" x="536.5" y="351.262">scanForEnemies(): void</text></g><!--class OTA--><g id="elem_OTA"><rect codeLine="49" fill="#F1F1F1" height="80.5938" id="OTA" rx="2.5" ry="2.5" style="stroke:#181818;stroke-width:0.5;" width="144" x="810.5" y="277.97"/><ellipse cx="863.75" cy="293.97" fill="#ADD1B2" rx="11" ry="11" style="stroke:#181818;stroke-width:1.0;"/><path d="M866.7188,299.6106 Q866.1406,299.9075 865.5,300.0481 Q864.8594,300.2044 864.1563,300.2044 Q861.6563,300.2044 860.3281,298.5637 Q859.0156,296.9075 859.0156,293.7825 Q859.0156,290.6575 860.3281,289.0012 Q861.6563,287.345 864.1563,287.345 Q864.8594,287.345 865.5,287.5012 Q866.1563,287.6575 866.7188,287.9544 L866.7188,290.6731 Q866.0938,290.095 865.5,289.8294 Q864.9063,289.5481 864.2813,289.5481 Q862.9375,289.5481 862.25,290.6262 Q861.5625,291.6887 861.5625,293.7825 Q861.5625,295.8762 862.25,296.9544 Q862.9375,298.0169 864.2813,298.0169 Q864.9063,298.0169 865.5,297.7512 Q866.0938,297.47 866.7188,296.8919 L866.7188,299.6106 Z " fill="#000000"/><text fill="#000000" font-family="sans-serif" font-size="14" lengthAdjust="spacing" textLength="29" x="884.25" y="298.8167">OTA</text><line style="stroke:#181818;stroke-width:0.5;" x1="811.5" x2="953.5" y1="309.97" y2="309.97"/><line style="stroke:#181818;stroke-width:0.5;" x1="811.5" x2="953.5" y1="317.97" y2="317.97"/><ellipse cx="821.5" cy="331.6184" fill="#84BE84" rx="3" ry="3" style="stroke:#038048;stroke-width:1.0;"/><text fill="#000000" font-family="sans-serif" font-size="14" lengthAdjust="spacing" textLength="112" x="830.5" y="334.9651">SetupOta(): void</text><ellipse cx="821.5" cy="347.9153" fill="#84BE84" rx="3" ry="3" style="stroke:#038048;stroke-width:1.0;"/><text fill="#000000" font-family="sans-serif" font-size="14" lengthAdjust="spacing" textLength="118" x="830.5" y="351.262">handleOta(): void</text></g><!--class WebServer--><g id="elem_WebServer"><rect codeLine="54" fill="#F1F1F1" height="80.5938" id="WebServer" rx="2.5" ry="2.5" style="stroke:#181818;stroke-width:0.5;" width="201" x="209" y="277.97"/><ellipse cx="267.75" cy="293.97" fill="#ADD1B2" rx="11" ry="11" style="stroke:#181818;stroke-width:1.0;"/><path d="M270.7188,299.6106 Q270.1406,299.9075 269.5,300.0481 Q268.8594,300.2044 268.1563,300.2044 Q265.6563,300.2044 264.3281,298.5637 Q263.0156,296.9075 263.0156,293.7825 Q263.0156,290.6575 264.3281,289.0012 Q265.6563,287.345 268.1563,287.345 Q268.8594,287.345 269.5,287.5012 Q270.1563,287.6575 270.7188,287.9544 L270.7188,290.6731 Q270.0938,290.095 269.5,289.8294 Q268.9063,289.5481 268.2813,289.5481 Q266.9375,289.5481 266.25,290.6262 Q265.5625,291.6887 265.5625,293.7825 Q265.5625,295.8762 266.25,296.9544 Q266.9375,298.0169 268.2813,298.0169 Q268.9063,298.0169 269.5,297.7512 Q270.0938,297.47 270.7188,296.8919 L270.7188,299.6106 Z " fill="#000000"/><text fill="#000000" font-family="sans-serif" font-size="14" lengthAdjust="spacing" textLength="75" x="288.25" y="298.8167">WebServer</text><line style="stroke:#181818;stroke-width:0.5;" x1="210" x2="409" y1="309.97" y2="309.97"/><line style="stroke:#181818;stroke-width:0.5;" x1="210" x2="409" y1="317.97" y2="317.97"/><ellipse cx="220" cy="331.6184" fill="#84BE84" rx="3" ry="3" style="stroke:#038048;stroke-width:1.0;"/><text fill="#000000" font-family="sans-serif" font-size="14" lengthAdjust="spacing" textLength="87" x="229" y="334.9651">setup(): void</text><ellipse cx="220" cy="347.9153" fill="#84BE84" rx="3" ry="3" style="stroke:#038048;stroke-width:1.0;"/><text fill="#000000" font-family="sans-serif" font-size="14" lengthAdjust="spacing" textLength="175" x="229" y="351.262">startCameraServer(): void</text></g><!--link Esp32Robot to Sensors--><g id="link_Esp32Robot_Sensors"><path codeLine="59" d="M679.54,218.17 C696.2,236.28 710.98,256.32 721.5,277.97 C744.89,326.08 749.1998,379.9248 747.2598,428.4248 " fill="none" id="Esp32Robot-to-Sensors" style="stroke:#181818;stroke-width:1.0;stroke-dasharray:7.0,7.0;"/><polygon fill="#181818" points="747.02,434.42,751.3765,425.5871,747.2198,429.424,743.3829,425.2673,747.02,434.42" style="stroke:#181818;stroke-width:1.0;"/></g><!--link Esp32Robot to MotorDriver--><g id="link_Esp32Robot_MotorDriver"><path codeLine="60" d="M511.73,218.1 C507.38,237.93 503.11,258.54 499.5,277.97 C491,323.74 484.0848,368.6784 477.9748,412.1684 " fill="none" id="Esp32Robot-to-MotorDriver" style="stroke:#181818;stroke-width:1.0;stroke-dasharray:7.0,7.0;"/><polygon fill="#181818" points="477.14,418.11,482.3532,409.754,477.8356,413.1586,474.431,408.641,477.14,418.11" style="stroke:#181818;stroke-width:1.0;"/></g><!--link Esp32Robot to Camera--><g id="link_Esp32Robot_Camera"><path codeLine="61" d="M380.05,151.61 C311.6,176.33 236.74,215.9 191.5,277.97 C149.39,335.73 147.624,416.0489 151.864,469.3289 " fill="none" id="Esp32Robot-to-Camera" style="stroke:#181818;stroke-width:1.0;stroke-dasharray:7.0,7.0;"/><polygon fill="#181818" points="152.34,475.31,155.6134,466.021,151.9434,470.3258,147.6386,466.6557,152.34,475.31" style="stroke:#181818;stroke-width:1.0;"/></g><!--link Esp32Robot to OTA--><g id="link_Esp32Robot_OTA"><path codeLine="62" d="M692.8,205.54 C735.78,230.85 774.9801,253.935 809.9901,274.555 " fill="none" id="Esp32Robot-to-OTA" style="stroke:#181818;stroke-width:1.0;stroke-dasharray:7.0,7.0;"/><polygon fill="#181818" points="815.16,277.6,809.4351,269.5859,810.8517,275.0625,805.3751,276.4792,815.16,277.6" style="stroke:#181818;stroke-width:1.0;"/></g><!--link Esp32Robot to Strategy--><g id="link_Esp32Robot_Strategy"><path codeLine="63" d="M574.58,218.36 C582.3,239.62 587.9119,255.0604 594.1619,272.2704 " fill="none" id="Esp32Robot-to-Strategy" style="stroke:#181818;stroke-width:1.0;stroke-dasharray:7.0,7.0;"/><polygon fill="#181818" points="596.21,277.91,596.8976,268.0852,594.5033,273.2103,589.3781,270.816,596.21,277.91" style="stroke:#181818;stroke-width:1.0;"/></g><!--link Strategy to Sensors--><g id="link_Strategy_Sensors"><path codeLine="65" d="M635.09,359.04 C648.41,380.58 662.2846,403.0167 678.5646,429.3467 " fill="none" id="Strategy-to-Sensors" style="stroke:#181818;stroke-width:1.0;stroke-dasharray:7.0,7.0;"/><polygon fill="#181818" points="681.72,434.45,680.3891,424.6915,679.0905,430.1973,673.5847,428.8987,681.72,434.45" style="stroke:#181818;stroke-width:1.0;"/></g><!--link Strategy to MotorDriver--><g id="link_Strategy_MotorDriver"><path codeLine="66" d="M581.81,359.04 C569.44,376.18 557.8501,392.2539 542.6301,413.3539 " fill="none" id="Strategy-to-MotorDriver" style="stroke:#181818;stroke-width:1.0;stroke-dasharray:7.0,7.0;"/><polygon fill="#181818" points="539.12,418.22,547.6292,413.2608,542.0451,414.1649,541.141,408.5807,539.12,418.22" style="stroke:#181818;stroke-width:1.0;"/></g><!--link Esp32Robot to WebServer--><g id="link_Esp32Robot_WebServer"><path codeLine="68" d="M419.68,218.36 C396.1,239.52 377.1853,256.5024 358.0653,273.6624 " fill="none" id="Esp32Robot-to-WebServer" style="stroke:#181818;stroke-width:1.0;stroke-dasharray:7.0,7.0;"/><polygon fill="#181818" points="353.6,277.67,362.9697,274.6355,357.3211,274.3303,357.6263,268.6817,353.6,277.67" style="stroke:#181818;stroke-width:1.0;"/></g><!--link WebServer to MotorDriver--><g id="link_WebServer_MotorDriver"><path codeLine="69" d="M339.56,359.04 C352.51,376.18 364.7119,392.3336 380.6619,413.4336 " fill="none" id="WebServer-to-MotorDriver" style="stroke:#181818;stroke-width:1.0;stroke-dasharray:7.0,7.0;"/><polygon fill="#181818" points="384.28,418.22,382.0437,408.6284,381.2649,414.2314,375.6619,413.4525,384.28,418.22" style="stroke:#181818;stroke-width:1.0;"/></g><!--link WebServer to Camera--><g id="link_WebServer_Camera"><path codeLine="70" d="M280.03,359.04 C255.39,392.28 223.7622,434.9693 197.5822,470.2993 " fill="none" id="WebServer-to-Camera" style="stroke:#181818;stroke-width:1.0;stroke-dasharray:7.0,7.0;"/><polygon fill="#181818" points="194.01,475.12,202.5821,470.2704,196.9868,471.1027,196.1545,465.5075,194.01,475.12" style="stroke:#181818;stroke-width:1.0;"/></g><!--SRC=[TPHjZvf04CVVyoasz-eQqyk9jGycRS89rpFHmuZ9jQ_82YEImYxP7KrDq-_U1M5PLyeBe_ER-S-3CoG5bPBCQGc2aZyEKSzxClTMmSQBLw4VBECV2o-CWsWzSQF9ZAImpnaqVYCY0O_L9VR-tOoSU9ws1EalM1yuyjeUeSXPvlnrdAJ95iXgucxuZgFEAEfVKGMGpaZEa7mbxdHgiXZF5NHI2j_vYvzthKE2eeWBs6CN-sW2aMS7Yun8fMGm0YQva3v5k_nAy0IaZFT0yIWWBcLcUKXWQHEOge-khc6HfefQ8U5bILawxDtCqafISDwRzFXMQgp25_a9X9vVMTky1QkEEEvwzSUFXDnoL_ClnEBhjvM6dqdpcFp9qfyEybx_eyrD_KzN-X9tvtNEDFtGmn69wj4ONLjJIZX3mOl6mRi_qU88ZSx_lPu6lFHuswtGezrk5j_ZzU9Lr-Qs89Y_X5TWqW8LyBADe-0r2ZSQTZkv39vlsDXijCrlDPa1-hb4oXAeYGfiGIutzO8lrLNwW90WfBR3Kft64EzRHa4HidFRyuZ0RqYE29tTtls4icSk0WPb3l9sGSEjfvMQbiAR0pkeEoZ0jEleDzX58Fhb7ZuDDGg1brVFnTiKCbum3m_Vkd_KDXiRPQEBi6rLVTr8TvDp7FtLJ7bbD1FQGhfhf-_VZhacbnh_0G00]--></g></svg>