<?xml version="1.0" encoding="us-ascii" standalone="no"?><svg xmlns="http://www.w3.org/2000/svg" xmlns:xlink="http://www.w3.org/1999/xlink" contentStyleType="text/css" height="512px" preserveAspectRatio="none" style="width:822px;height:512px;background:#FFFFFF;" version="1.1" viewBox="0 0 822 512" width="822px" zoomAndPan="magnify"><defs/><g><!--class Camera--><g id="elem_Camera"><rect codeLine="1" fill="#F1F1F1" height="96.8906" id="Camera" rx="2.5" ry="2.5" style="stroke:#181818;stroke-width:0.5;" width="303" x="7" y="352.01"/><ellipse cx="127.75" cy="368.01" fill="#ADD1B2" rx="11" ry="11" style="stroke:#181818;stroke-width:1.0;"/><path d="M130.7188,373.6506 Q130.1406,373.9475 129.5,374.0881 Q128.8594,374.2444 128.1563,374.2444 Q125.6563,374.2444 124.3281,372.6038 Q123.0156,370.9475 123.0156,367.8225 Q123.0156,364.6975 124.3281,363.0413 Q125.6563,361.385 128.1563,361.385 Q128.8594,361.385 129.5,361.5413 Q130.1563,361.6975 130.7188,361.9944 L130.7188,364.7131 Q130.0938,364.135 129.5,363.8694 Q128.9063,363.5881 128.2813,363.5881 Q126.9375,363.5881 126.25,364.6663 Q125.5625,365.7288 125.5625,367.8225 Q125.5625,369.9163 126.25,370.9944 Q126.9375,372.0569 128.2813,372.0569 Q128.9063,372.0569 129.5,371.7913 Q130.0938,371.51 130.7188,370.9319 L130.7188,373.6506 Z " fill="#000000"/><text fill="#000000" font-family="sans-serif" font-size="14" lengthAdjust="spacing" textLength="53" x="148.25" y="372.8567">Camera</text><line style="stroke:#181818;stroke-width:0.5;" x1="8" x2="309" y1="384.01" y2="384.01"/><rect fill="none" height="6" style="stroke:#C82930;stroke-width:1.0;" width="6" x="15" y="394.6584"/><text fill="#000000" font-family="sans-serif" font-size="14" lengthAdjust="spacing" textLength="277" x="27" y="401.0051">CAMERA_MODEL_XIAO_ESP32S3: define</text><line style="stroke:#181818;stroke-width:0.5;" x1="8" x2="309" y1="408.3069" y2="408.3069"/><ellipse cx="18" cy="421.9553" fill="#84BE84" rx="3" ry="3" style="stroke:#038048;stroke-width:1.0;"/><text fill="#000000" font-family="sans-serif" font-size="14" lengthAdjust="spacing" textLength="140" x="27" y="425.302">setupCamera(): void</text><ellipse cx="18" cy="438.2522" fill="#84BE84" rx="3" ry="3" style="stroke:#038048;stroke-width:1.0;"/><text fill="#000000" font-family="sans-serif" font-size="14" lengthAdjust="spacing" textLength="130" x="27" y="441.5989">takePhoto(): String</text></g><!--class Esp32Robot--><g id="elem_Esp32Robot"><rect codeLine="7" fill="#F1F1F1" height="210.9688" id="Esp32Robot" rx="2.5" ry="2.5" style="stroke:#181818;stroke-width:0.5;" width="312" x="305.5" y="7"/><ellipse cx="414.25" cy="23" fill="#ADD1B2" rx="11" ry="11" style="stroke:#181818;stroke-width:1.0;"/><path d="M417.2188,28.6406 Q416.6406,28.9375 416,29.0781 Q415.3594,29.2344 414.6563,29.2344 Q412.1563,29.2344 410.8281,27.5938 Q409.5156,25.9375 409.5156,22.8125 Q409.5156,19.6875 410.8281,18.0313 Q412.1563,16.375 414.6563,16.375 Q415.3594,16.375 416,16.5313 Q416.6563,16.6875 417.2188,16.9844 L417.2188,19.7031 Q416.5938,19.125 416,18.8594 Q415.4063,18.5781 414.7813,18.5781 Q413.4375,18.5781 412.75,19.6563 Q412.0625,20.7188 412.0625,22.8125 Q412.0625,24.9063 412.75,25.9844 Q413.4375,27.0469 414.7813,27.0469 Q415.4063,27.0469 416,26.7813 Q416.5938,26.5 417.2188,25.9219 L417.2188,28.6406 Z " fill="#000000"/><text fill="#000000" font-family="sans-serif" font-size="14" lengthAdjust="spacing" textLength="86" x="434.75" y="27.8467">Esp32Robot</text><line style="stroke:#181818;stroke-width:0.5;" x1="306.5" x2="616.5" y1="39" y2="39"/><rect fill="none" height="6" style="stroke:#C82930;stroke-width:1.0;" width="6" x="313.5" y="49.6484"/><text fill="#000000" font-family="sans-serif" font-size="14" lengthAdjust="spacing" textLength="155" x="325.5" y="55.9951">robotSpeed: int = 255</text><rect fill="none" height="6" style="stroke:#C82930;stroke-width:1.0;" width="6" x="313.5" y="65.9453"/><text fill="#000000" font-family="sans-serif" font-size="14" lengthAdjust="spacing" textLength="176" x="325.5" y="72.292">robot_type: String = "DIY"</text><rect fill="none" height="6" style="stroke:#C82930;stroke-width:1.0;" width="6" x="313.5" y="82.2422"/><text fill="#000000" font-family="sans-serif" font-size="14" lengthAdjust="spacing" textLength="109" x="325.5" y="88.5889">ctrl_left: int = 0;</text><rect fill="none" height="6" style="stroke:#C82930;stroke-width:1.0;" width="6" x="313.5" y="98.5391"/><text fill="#000000" font-family="sans-serif" font-size="14" lengthAdjust="spacing" textLength="119" x="325.5" y="104.8857">ctrl_right: int = 0;</text><line style="stroke:#181818;stroke-width:0.5;" x1="306.5" x2="616.5" y1="112.1875" y2="112.1875"/><ellipse cx="316.5" cy="125.8359" fill="#84BE84" rx="3" ry="3" style="stroke:#038048;stroke-width:1.0;"/><text fill="#000000" font-family="sans-serif" font-size="14" lengthAdjust="spacing" textLength="167" x="325.5" y="129.1826">printSensorsData(): void</text><ellipse cx="316.5" cy="142.1328" fill="#84BE84" rx="3" ry="3" style="stroke:#038048;stroke-width:1.0;"/><text fill="#000000" font-family="sans-serif" font-size="14" lengthAdjust="spacing" textLength="196" x="325.5" y="145.4795">process_feature_msg(): void</text><ellipse cx="316.5" cy="158.4297" fill="#84BE84" rx="3" ry="3" style="stroke:#038048;stroke-width:1.0;"/><text fill="#000000" font-family="sans-serif" font-size="14" lengthAdjust="spacing" textLength="193" x="325.5" y="161.7764">sendData(data: String): void</text><ellipse cx="316.5" cy="174.7266" fill="#84BE84" rx="3" ry="3" style="stroke:#038048;stroke-width:1.0;"/><text fill="#000000" font-family="sans-serif" font-size="14" lengthAdjust="spacing" textLength="286" x="325.5" y="178.0732">process_ctrl_msg(command: String): void</text><ellipse cx="316.5" cy="191.0234" fill="#84BE84" rx="3" ry="3" style="stroke:#038048;stroke-width:1.0;"/><text fill="#000000" font-family="sans-serif" font-size="14" lengthAdjust="spacing" textLength="87" x="325.5" y="194.3701">setup(): void</text><ellipse cx="316.5" cy="207.3203" fill="#84BE84" rx="3" ry="3" style="stroke:#038048;stroke-width:1.0;"/><text fill="#000000" font-family="sans-serif" font-size="14" lengthAdjust="spacing" textLength="77" x="325.5" y="210.667">loop(): void</text></g><!--class MotorDriver--><g id="elem_MotorDriver"><rect codeLine="20" fill="#F1F1F1" height="210.9688" id="MotorDriver" rx="2.5" ry="2.5" style="stroke:#181818;stroke-width:0.5;" width="233" x="345" y="294.97"/><ellipse cx="417.25" cy="310.97" fill="#ADD1B2" rx="11" ry="11" style="stroke:#181818;stroke-width:1.0;"/><path d="M420.2188,316.6106 Q419.6406,316.9075 419,317.0481 Q418.3594,317.2044 417.6563,317.2044 Q415.1563,317.2044 413.8281,315.5637 Q412.5156,313.9075 412.5156,310.7825 Q412.5156,307.6575 413.8281,306.0012 Q415.1563,304.345 417.6563,304.345 Q418.3594,304.345 419,304.5012 Q419.6563,304.6575 420.2188,304.9544 L420.2188,307.6731 Q419.5938,307.095 419,306.8294 Q418.4063,306.5481 417.7813,306.5481 Q416.4375,306.5481 415.75,307.6262 Q415.0625,308.6887 415.0625,310.7825 Q415.0625,312.8762 415.75,313.9544 Q416.4375,315.0169 417.7813,315.0169 Q418.4063,315.0169 419,314.7512 Q419.5938,314.47 420.2188,313.8919 L420.2188,316.6106 Z " fill="#000000"/><text fill="#000000" font-family="sans-serif" font-size="14" lengthAdjust="spacing" textLength="80" x="437.75" y="315.8167">MotorDriver</text><line style="stroke:#181818;stroke-width:0.5;" x1="346" x2="577" y1="326.97" y2="326.97"/><rect fill="none" height="6" style="stroke:#C82930;stroke-width:1.0;" width="6" x="353" y="337.6184"/><text fill="#000000" font-family="sans-serif" font-size="14" lengthAdjust="spacing" textLength="169" x="365" y="343.9651">motorAInput1: int = D10</text><rect fill="none" height="6" style="stroke:#C82930;stroke-width:1.0;" width="6" x="353" y="353.9153"/><text fill="#000000" font-family="sans-serif" font-size="14" lengthAdjust="spacing" textLength="160" x="365" y="360.262">motorAInput2: int = D9</text><rect fill="none" height="6" style="stroke:#C82930;stroke-width:1.0;" width="6" x="353" y="370.2122"/><text fill="#000000" font-family="sans-serif" font-size="14" lengthAdjust="spacing" textLength="150" x="365" y="376.5589">motorAPWM: int = D8</text><rect fill="none" height="6" style="stroke:#C82930;stroke-width:1.0;" width="6" x="353" y="386.5091"/><text fill="#000000" font-family="sans-serif" font-size="14" lengthAdjust="spacing" textLength="161" x="365" y="392.8557">motorBInput1: int = D5</text><rect fill="none" height="6" style="stroke:#C82930;stroke-width:1.0;" width="6" x="353" y="402.8059"/><text fill="#000000" font-family="sans-serif" font-size="14" lengthAdjust="spacing" textLength="161" x="365" y="409.1526">motorBInput2: int = D6</text><rect fill="none" height="6" style="stroke:#C82930;stroke-width:1.0;" width="6" x="353" y="419.1028"/><text fill="#000000" font-family="sans-serif" font-size="14" lengthAdjust="spacing" textLength="151" x="365" y="425.4495">motorBPWM: int = D7</text><rect fill="none" height="6" style="stroke:#C82930;stroke-width:1.0;" width="6" x="353" y="435.3997"/><text fill="#000000" font-family="sans-serif" font-size="14" lengthAdjust="spacing" textLength="116" x="365" y="441.7464">stbyPin: int = D4</text><line style="stroke:#181818;stroke-width:0.5;" x1="346" x2="577" y1="449.0481" y2="449.0481"/><ellipse cx="356" cy="462.6966" fill="#84BE84" rx="3" ry="3" style="stroke:#038048;stroke-width:1.0;"/><text fill="#000000" font-family="sans-serif" font-size="14" lengthAdjust="spacing" textLength="168" x="365" y="466.0432">SetupMotorDriver(): void</text><ellipse cx="356" cy="478.9934" fill="#84BE84" rx="3" ry="3" style="stroke:#038048;stroke-width:1.0;"/><text fill="#000000" font-family="sans-serif" font-size="14" lengthAdjust="spacing" textLength="206" x="365" y="482.3401">controlMotorA(value: int): void</text><ellipse cx="356" cy="495.2903" fill="#84BE84" rx="3" ry="3" style="stroke:#038048;stroke-width:1.0;"/><text fill="#000000" font-family="sans-serif" font-size="14" lengthAdjust="spacing" textLength="207" x="365" y="498.637">controlMotorB(value: int): void</text></g><!--class Sensors--><g id="elem_Sensors"><rect codeLine="33" fill="#F1F1F1" height="178.375" id="Sensors" rx="2.5" ry="2.5" style="stroke:#181818;stroke-width:0.5;" width="202" x="613.5" y="311.27"/><ellipse cx="681.75" cy="327.27" fill="#ADD1B2" rx="11" ry="11" style="stroke:#181818;stroke-width:1.0;"/><path d="M684.7188,332.9106 Q684.1406,333.2075 683.5,333.3481 Q682.8594,333.5044 682.1563,333.5044 Q679.6563,333.5044 678.3281,331.8638 Q677.0156,330.2075 677.0156,327.0825 Q677.0156,323.9575 678.3281,322.3013 Q679.6563,320.645 682.1563,320.645 Q682.8594,320.645 683.5,320.8013 Q684.1563,320.9575 684.7188,321.2544 L684.7188,323.9731 Q684.0938,323.395 683.5,323.1294 Q682.9063,322.8481 682.2813,322.8481 Q680.9375,322.8481 680.25,323.9263 Q679.5625,324.9888 679.5625,327.0825 Q679.5625,329.1763 680.25,330.2544 Q680.9375,331.3169 682.2813,331.3169 Q682.9063,331.3169 683.5,331.0513 Q684.0938,330.77 684.7188,330.1919 L684.7188,332.9106 Z " fill="#000000"/><text fill="#000000" font-family="sans-serif" font-size="14" lengthAdjust="spacing" textLength="57" x="702.25" y="332.1167">Sensors</text><line style="stroke:#181818;stroke-width:0.5;" x1="614.5" x2="814.5" y1="343.27" y2="343.27"/><rect fill="none" height="6" style="stroke:#C82930;stroke-width:1.0;" width="6" x="621.5" y="353.9184"/><text fill="#000000" font-family="sans-serif" font-size="14" lengthAdjust="spacing" textLength="128" x="633.5" y="360.2651">TRIG_PIN: int = D2</text><rect fill="none" height="6" style="stroke:#C82930;stroke-width:1.0;" width="6" x="621.5" y="370.2153"/><text fill="#000000" font-family="sans-serif" font-size="14" lengthAdjust="spacing" textLength="135" x="633.5" y="376.562">ECHO_PIN: int = D3</text><rect fill="none" height="6" style="stroke:#C82930;stroke-width:1.0;" width="6" x="621.5" y="386.5122"/><text fill="#000000" font-family="sans-serif" font-size="14" lengthAdjust="spacing" textLength="174" x="633.5" y="392.8589">RIGHT_SENSOR: int = D0</text><rect fill="none" height="6" style="stroke:#C82930;stroke-width:1.0;" width="6" x="621.5" y="402.8091"/><text fill="#000000" font-family="sans-serif" font-size="14" lengthAdjust="spacing" textLength="164" x="633.5" y="409.1557">LEFT_SENSOR: int = D1</text><line style="stroke:#181818;stroke-width:0.5;" x1="614.5" x2="814.5" y1="416.4575" y2="416.4575"/><ellipse cx="624.5" cy="430.1059" fill="#84BE84" rx="3" ry="3" style="stroke:#038048;stroke-width:1.0;"/><text fill="#000000" font-family="sans-serif" font-size="14" lengthAdjust="spacing" textLength="145" x="633.5" y="433.4526">SetupSensors(): void</text><ellipse cx="624.5" cy="446.4028" fill="#84BE84" rx="3" ry="3" style="stroke:#038048;stroke-width:1.0;"/><text fill="#000000" font-family="sans-serif" font-size="14" lengthAdjust="spacing" textLength="120" x="633.5" y="449.7495">getDistance(): int</text><ellipse cx="624.5" cy="462.6997" fill="#84BE84" rx="3" ry="3" style="stroke:#038048;stroke-width:1.0;"/><text fill="#000000" font-family="sans-serif" font-size="14" lengthAdjust="spacing" textLength="176" x="633.5" y="466.0464">isRightLineDetected(): int</text><ellipse cx="624.5" cy="478.9966" fill="#84BE84" rx="3" ry="3" style="stroke:#038048;stroke-width:1.0;"/><text fill="#000000" font-family="sans-serif" font-size="14" lengthAdjust="spacing" textLength="165" x="633.5" y="482.3432">isLeftLineDetected(): int</text></g><!--link Esp32Robot to Sensors--><g id="link_Esp32Robot_Sensors"><path codeLine="44" d="M565.44,218.31 C574.71,228.22 583.85,238.21 592.5,247.97 C610.19,267.94 624.8053,285.3361 641.7853,306.3161 " fill="none" id="Esp32Robot-to-Sensors" style="stroke:#181818;stroke-width:1.0;stroke-dasharray:7.0,7.0;"/><polygon fill="#181818" points="645.56,310.98,643.0072,301.4677,642.4144,307.0934,636.7887,306.5006,645.56,310.98" style="stroke:#181818;stroke-width:1.0;"/><text fill="#000000" font-family="sans-serif" font-size="13" lengthAdjust="spacing" textLength="121" x="606.5" y="261.0369">composition (1 - n)</text></g><!--link Esp32Robot to MotorDriver--><g id="link_Esp32Robot_MotorDriver"><path codeLine="45" d="M461.5,218.35 C461.5,243.21 461.5,263.74 461.5,288.61 " fill="none" id="Esp32Robot-to-MotorDriver" style="stroke:#181818;stroke-width:1.0;stroke-dasharray:7.0,7.0;"/><polygon fill="#181818" points="461.5,294.61,465.5,285.61,461.5,289.61,457.5,285.61,461.5,294.61" style="stroke:#181818;stroke-width:1.0;"/><text fill="#000000" font-family="sans-serif" font-size="13" lengthAdjust="spacing" textLength="121" x="462.5" y="261.0369">composition (1 - 1)</text></g><!--link Esp32Robot to Camera--><g id="link_Esp32Robot_Camera"><path codeLine="46" d="M350.39,218.35 C301.92,264.1 251.8534,311.3416 213.3834,347.6516 " fill="none" id="Esp32Robot-to-Camera" style="stroke:#181818;stroke-width:1.0;stroke-dasharray:7.0,7.0;"/><polygon fill="#181818" points="209.02,351.77,218.3106,348.5013,212.6561,348.338,212.8195,342.6835,209.02,351.77" style="stroke:#181818;stroke-width:1.0;"/><text fill="#000000" font-family="sans-serif" font-size="13" lengthAdjust="spacing" textLength="121" x="311.5" y="261.0369">composition (1 - 1)</text></g><!--SRC=[TPHHRvim58NVyokiFgMALWMoT5scJgA1jKX9Ww3IrYVamarg3MnatqIgfltt6Ueur64y8E7lt7DzZsoAYYf5bhG6IScV4T7F9x8Crb4QvEjD6AtoNt6moQCicVdPR45As38EdMv25E2-UQyTNox8GR3I4AI_8NaLADhr32NZkz7VqQZekaMgcVcfU15eEyhsAsi0oWLX7CajyUVpFilnhO6ZbSONOVnyOGG5oYglO8l7skctFf5iz-gY2Mcq4MR0bP0gfEWEq4XHW5Bv5YZk9UIrsZaA1Rpi2alzEkvisAJRHkjGYBgcl1nMTsawJIeXJaismBKELeQI7K3Q1EjsBOXviqVlE6peJGavvxxbNud3avzh2sz8z_JvdUC_7-Gd_skNz_s_VF1N-FAMC6xfvnESaAoDfZUrar8XE4fHTO9WVA3L7ZgV_wlk1bGsNdCgRBHFQNoV9_6ZtPjlGBHys7m0CmDqmSDJdaMFsIQrS6hWAlfnnhp-eAQ_C-GEC6GAAI-W9RhG0ARIzeIlzBqC0Q50A5t1Ib-E8Qv7xbt6gwllTlQ5ZgjkX6B812TZJ- -RNxhY_ZaSAF3E2in_Pb3x3m00]--></g></svg>